<svg id="Layer_1" data-name="Layer 1" xmlns="http://www.w3.org/2000/svg" viewBox="0 0 61.16 53.63"><defs><style>.cls-1{fill:#4d4d4d;}.cls-2,.cls-3{fill:none;stroke:#4d4d4d;stroke-miterlimit:10;}.cls-3{stroke-width:3px;}</style></defs><path class="cls-1" d="M100.67,99.22a10.08,10.08,0,1,1,10.08-10.08A10.09,10.09,0,0,1,100.67,99.22Z" transform="translate(-69.83 -77.56)"/><path class="cls-1" d="M100.67,80.56a8.58,8.58,0,1,1-8.58,8.58,8.59,8.59,0,0,1,8.58-8.58m0-3a11.58,11.58,0,1,0,11.58,11.58,11.59,11.59,0,0,0-11.58-11.58Z" transform="translate(-69.83 -77.56)"/><path class="cls-1" d="M119.41,129.69A10.09,10.09,0,1,1,129.5,119.6,10.1,10.1,0,0,1,119.41,129.69Z" transform="translate(-69.83 -77.56)"/><path class="cls-1" d="M119.41,111a8.59,8.59,0,1,1-8.58,8.58,8.59,8.59,0,0,1,8.58-8.58m0-3A11.59,11.59,0,1,0,131,119.6,11.59,11.59,0,0,0,119.41,108Z" transform="translate(-69.83 -77.56)"/><path class="cls-2" d="M85.94,110.5" transform="translate(-69.83 -77.56)"/><path class="cls-2" d="M94.15,98.7" transform="translate(-69.83 -77.56)"/><path class="cls-2" d="M115.06,110.5" transform="translate(-69.83 -77.56)"/><path class="cls-2" d="M106.44,97.58" transform="translate(-69.83 -77.56)"/><path class="cls-2" d="M93.22,128.7" transform="translate(-69.83 -77.56)"/><path class="cls-2" d="M78.66,106.86" transform="translate(-69.83 -77.56)"/><circle class="cls-1" cx="11.58" cy="42.04" r="11.58"/><line class="cls-3" x1="16.17" y1="33.44" x2="25.17" y2="19.44"/><line class="cls-3" x1="45.17" y1="33.44" x2="37.17" y2="19.44"/></svg>